HIERARCHY
ROOT Hips
{
  OFFSET 1.44925e-005 102.336 -0.101585
  CHANNELS 6 Xposition Yposition Zposition Zrotation Xrotation Yrotation
  JOINT LeftUpLeg
  {
    OFFSET 8.9458 -8.66707 0.101652
    CHANNELS 3 Zrotation Xrotation Yrotation
    JOINT LeftLeg
    {
      OFFSET 0 -44.4227 1.3727
      CHANNELS 3 Zrotation Xrotation Yrotation
      JOINT LeftFoot
      {
        OFFSET -0.253549 -42.0924 -1.46059
        CHANNELS 3 Zrotation Xrotation Yrotation
        JOINT LeftToes
        {
          OFFSET -0.04 -4.41509 8.4991
          CHANNELS 3 Zrotation Xrotation Yrotation
          End Site
          {
            OFFSET 0.08 -0.047448 9.77979
          }
        }
      }
    }
  }
  JOINT Spine
  {
    OFFSET 0 11.8905 0
    CHANNELS 3 Zrotation Xrotation Yrotation
    JOINT Spine1
    {
      OFFSET 0 25.6574 0.127663
      CHANNELS 3 Zrotation Xrotation Yrotation
      JOINT RightShoulder
      {
        OFFSET -8.99 -0.362252 -0.22
        CHANNELS 3 Zrotation Xrotation Yrotation
        JOINT RightArm
        {
          OFFSET -10.2827 -0.00338 0.322123
          CHANNELS 3 Zrotation Xrotation Yrotation
          JOINT RightForeArm
          {
            OFFSET -26.364 0.099144 -1.42434
            CHANNELS 3 Zrotation Xrotation Yrotation
            JOINT RightHand
            {
              OFFSET -22.0324 0.085362 1.02216
              CHANNELS 3 Zrotation Xrotation Yrotation
              End Site
              {
                OFFSET -13.3284 -0.6 1.50291
              }
            }
          }
        }
      }
      JOINT LeftShoulder1
      {
        OFFSET 8.99 -0.362252 -0.22
        CHANNELS 3 Zrotation Xrotation Yrotation
        JOINT LeftArm
        {
          OFFSET 10.2827 -0.00337999 0.322123
          CHANNELS 3 Zrotation Xrotation Yrotation
          JOINT LeftForeArm
          {
            OFFSET 26.2597 0.099144 -1.42434
            CHANNELS 3 Zrotation Xrotation Yrotation
            JOINT LeftHand
            {
              OFFSET 22.0902 0.085362 1.02216
              CHANNELS 3 Zrotation Xrotation Yrotation
              End Site
              {
                OFFSET 13.419 -0.6 1.50291
              }
            }
          }
        }
      }
      JOINT Head
      {
        OFFSET 0 8.73416 0.011341
        CHANNELS 3 Zrotation Xrotation Yrotation
        End Site
        {
          OFFSET -0.29 12.7742 2.51395
        }
      }
    }
  }
  JOINT RightUpLeg
  {
    OFFSET -8.9458 -8.66707 0.101652
    CHANNELS 3 Zrotation Xrotation Yrotation
    JOINT RightLeg
    {
      OFFSET 0 -44.4227 1.3727
      CHANNELS 3 Zrotation Xrotation Yrotation
      JOINT RightFoot
      {
        OFFSET 0.253549 -42.0924 -1.46059
        CHANNELS 3 Zrotation Xrotation Yrotation
        JOINT RightToes
        {
          OFFSET 0.04 -4.41509 8.4991
          CHANNELS 3 Zrotation Xrotation Yrotation
          End Site
          {
            OFFSET -0.08 -0.137448 9.77979
          }
        }
      }
    }
  }
}
MOTION
Frames:	10
Frame Time:	0.0333333
188.375 102.912 3.63174 -4.41079 -0.190843 -90.6924 -1.71448 0.606584 1.50583 0.0815184 11.0158 18.6387 -1.39686 -11.8252 0.0105427 -1.32361e-009 8.75227e-006 -1.45912e-008 0.130739 10.7249 -0.25405 -1.02883 -5.78889 -0.0346089 37.4523 1.72764 -0.0431862 40.9119 -14.2879 2.79489 7.43895 33.8455 10.6199 -9.54651 9.48879 0.0674415 -44.5955 3.53217 -3.38878 -26.4851 -11.2706 4.11164 -4.30669 32.2287 -15.6423 5.82328 9.61819 -0.917488 0.870989 -1.55465 -6.53124 -0.416117 0.281723 -3.4309 -0.661101 12.9054 -9.2469 2.92734 -13.2376 -0.070867 0.0462048 0.000530889 0.662642 
188.378 102.912 3.63174 -4.3954 -0.213312 -90.7036 -1.73954 0.606589 1.485 0.0847887 10.9819 18.6762 -1.40327 -11.8053 0.0105419 -1.32361e-009 8.75227e-006 -1.45912e-008 0.102932 10.7504 -0.265257 -1.01093 -5.83637 -0.0500317 37.4324 1.72764 -0.0431862 40.9546 -14.3448 2.82148 7.45658 33.9643 10.5571 -9.55638 9.48879 0.0802813 -44.6011 3.53269 -3.38879 -26.4917 -11.066 4.14672 -4.24977 32.0366 -15.7642 5.82328 9.61819 -0.917488 0.764713 -1.84283 -6.61906 -0.442192 0.242999 -3.44839 -0.661449 12.9411 -9.22077 2.91855 -13.2376 -0.070867 0.0462048 0.000530889 0.662642 
188.388 102.912 3.63174 -4.37801 -0.239402 -90.7145 -1.76978 0.609129 1.45775 0.0894269 10.9378 18.7202 -1.42291 -11.7798 0.0105409 -1.32361e-009 8.75227e-006 -1.45912e-008 0.0437523 10.7549 -0.277127 -0.940824 -5.8228 -0.0749429 37.3791 1.72764 -0.0431862 41.0006 -14.3004 2.86547 7.43153 34.0163 10.5869 -9.49857 9.48879 0.0599329 -44.6398 3.53623 -3.3888 -26.5044 -10.724 4.17146 -4.11992 31.7173 -16.0061 5.82328 9.61819 -0.917488 0.663756 -2.20705 -6.66434 -0.469687 0.197476 -3.46425 -0.659931 12.9762 -9.20322 2.91017 -13.2376 -0.070867 0.0462048 0.000530889 0.662642 
188.4 102.912 3.63174 -4.39192 -0.249661 -90.7106 -1.78269 0.628312 1.44744 0.0934263 10.9086 18.7254 -1.42954 -11.7599 0.0105402 -1.32361e-009 8.75227e-006 -1.45912e-008 0.00709964 10.8076 -0.282356 -0.87219 -5.81912 -0.0923438 37.3291 1.72764 -0.0431862 40.993 -13.9582 2.83611 7.39729 33.5855 10.7642 -9.52622 9.48942 -0.0190453 -44.7067 3.54332 -3.38882 -26.5023 -10.4605 4.18791 -3.98956 31.4142 -16.2394 5.82328 9.61819 -0.917488 0.747494 -2.46245 -6.12049 -0.478447 0.20168 -3.46903 -0.65852 12.9803 -9.20869 2.91676 -13.2375 -0.070867 0.0462048 0.000530889 0.662642 
188.418 102.912 3.63174 -4.42949 -0.251427 -90.723 -1.78493 0.673886 1.45613 0.0900322 10.8783 18.7245 -1.40995 -11.7396 0.0105394 -1.32361e-009 8.75227e-006 -1.45912e-008 0.0572753 10.9374 -0.272897 -0.908471 -5.87659 -0.0757039 37.3062 1.72674 -0.0431862 40.9645 -13.5476 2.75001 7.38952 32.9527 10.9527 -9.59938 9.49419 -0.127952 -44.7584 3.54728 -3.38884 -26.4845 -10.3751 4.15911 -3.94893 31.2187 -16.3368 5.82328 9.61819 -0.917488 0.920167 -2.66773 -5.11106 -0.48087 0.232603 -3.46539 -0.664651 12.9767 -9.19407 2.94589 -13.2346 -0.0708661 0.0462048 0.000530889 0.662642 
188.448 102.912 3.63174 -4.45825 -0.256292 -90.7753 -1.78982 0.708146 1.47043 0.0743154 10.8405 18.7628 -1.38679 -11.7176 0.0105385 -1.32361e-009 8.75227e-006 -1.45912e-008 0.172074 11.0273 -0.244953 -1.03189 -5.83252 -0.0228246 37.2717 1.7224 -0.0431861 40.9865 -13.5414 2.75821 7.32744 32.9538 11.0297 -9.41319 9.50857 -0.208974 -44.7897 3.54947 -3.3899 -26.4581 -10.4127 3.99412 -4.00279 31.1648 -16.2887 5.82328 9.61819 -0.917488 0.942706 -3.04361 -4.39564 -0.488926 0.229749 -3.45951 -0.67821 12.997 -9.14362 2.96027 -13.2249 -0.0708633 0.0462048 0.000530889 0.662642 
188.494 102.911 3.63174 -4.47957 -0.267699 -90.8245 -1.80311 0.709834 1.47408 0.0604554 10.829 18.8142 -1.38163 -11.7028 0.010538 -1.32361e-009 8.75227e-006 -1.45912e-008 0.232277 11.0226 -0.217754 -1.08217 -5.60048 0.0179565 37.1905 1.71655 -0.0424697 41.0604 -13.9481 2.92464 7.18299 33.6866 10.9949 -8.98689 9.52715 -0.200212 -44.8406 3.55671 -3.396 -26.4325 -10.4604 3.7296 -4.0596 31.1768 -16.2211 5.82328 9.61819 -0.917488 0.813768 -3.58133 -4.10128 -0.501418 0.189434 -3.45737 -0.694162 13.0519 -9.09972 2.93715 -13.2214 -0.0708623 0.0462048 0.000530889 0.662642 
188.548 102.906 3.63218 -4.5138 -0.285695 -90.8233 -1.82554 0.691677 1.45982 0.0618495 10.8682 18.8308 -1.38701 -11.6965 0.0105377 -1.32361e-009 8.75227e-006 -1.45912e-008 0.162154 11.0518 -0.214192 -0.971188 -5.39759 0.00356471 37.1065 1.71377 -0.0392847 41.1182 -14.2157 3.10906 7.15024 34.1629 10.8982 -8.83823 9.5264 -0.0918 -44.9123 3.56762 -3.40657 -26.4264 -10.4634 3.54939 -4.04758 31.1323 -16.2453 5.82328 9.61819 -0.917488 0.76612 -3.92231 -3.71003 -0.519338 0.149013 -3.46371 -0.704281 13.136 -9.08735 2.92476 -13.2408 -0.0708679 0.0462048 0.000530889 0.662642 
188.595 102.899 3.63366 -4.53506 -0.306118 -90.7967 -1.85181 0.653739 1.43396 0.070233 10.9245 18.8289 -1.38857 -11.6882 0.0105374 -1.32361e-009 8.75227e-006 -1.45912e-008 0.0345805 11.1987 -0.223614 -0.811968 -5.42243 -0.0372478 37.0787 1.71248 -0.037726 41.1246 -14.0544 3.16519 7.33115 33.7907 10.7779 -9.21482 9.50007 0.0360501 -44.9516 3.57349 -3.41105 -26.4552 -10.4367 3.52299 -4.00124 31.0282 -16.3229 5.82328 9.61819 -0.917488 0.889526 -4.05623 -3.32809 -0.544601 0.104361 -3.47825 -0.706035 13.219 -9.08431 2.95042 -13.2625 -0.0708743 0.0462048 0.000530889 0.662642 
188.627 102.897 3.63668 -4.49372 -0.318943 -90.7886 -1.87006 0.577643 1.4063 0.072689 10.9418 18.8474 -1.37882 -11.6656 0.0105366 -1.32361e-009 8.75227e-006 -1.45912e-008 -0.0299699 11.3449 -0.218938 -0.749741 -5.54882 -0.0475928 37.0877 1.71163 -0.0417437 41.1064 -13.8638 3.1267 7.50323 33.3456 10.6893 -9.59888 9.47554 0.123906 -44.9382 3.57606 -3.40663 -26.4995 -10.4177 3.50929 -4.00436 30.9919 -16.3291 5.82328 9.61819 -0.917488 0.741283 -4.24451 -3.39218 -0.56456 0.0265759 -3.48034 -0.701515 13.2464 -9.08514 2.95225 -13.2536 -0.0708717 0.0462048 0.000530889 0.662642 
